<?xml version="1.0" encoding="utf-8"?>
<!-- Generator: Adobe Illustrator 21.1.0, SVG Export Plug-In . SVG Version: 6.00 Build 0)  -->
<svg version="1.1" id="Layer_1" xmlns="http://www.w3.org/2000/svg" xmlns:xlink="http://www.w3.org/1999/xlink" x="0px" y="0px"
	 viewBox="0 0 27 16" style="enable-background:new 0 0 27 16;" xml:space="preserve">
<style type="text/css">
	.st0{fill:#0052B4;}
	.st1{fill:#FFDA44;}
	.st2{fill:#F0F0F0;}
	.st3{fill:#D80027;}
</style>
<g>
	<g>
		<circle class="st0" cx="8" cy="8" r="8"/>
		<g>
			<polygon class="st1" points="8,3.1 8.3,3.9 9.1,3.9 8.4,4.4 8.7,5.2 8,4.7 7.3,5.2 7.6,4.4 6.9,3.9 7.7,3.9 			"/>
			<polygon class="st1" points="4.6,4.6 5.3,4.9 5.9,4.3 5.8,5.2 6.5,5.6 5.7,5.7 5.6,6.5 5.2,5.8 4.3,5.9 4.9,5.3 			"/>
			<polygon class="st1" points="3.1,8 3.9,7.7 3.9,6.9 4.4,7.6 5.2,7.3 4.7,8 5.2,8.7 4.4,8.4 3.9,9.1 3.9,8.3 			"/>
			<polygon class="st1" points="4.6,11.4 4.9,10.7 4.3,10.1 5.2,10.2 5.6,9.5 5.7,10.3 6.5,10.4 5.8,10.8 5.9,11.7 5.3,11.1 			"/>
			<polygon class="st1" points="8,12.9 7.7,12.1 6.9,12.1 7.6,11.6 7.3,10.8 8,11.3 8.7,10.8 8.4,11.6 9.1,12.1 8.3,12.1 			"/>
			<polygon class="st1" points="11.4,11.4 10.7,11.1 10.1,11.7 10.2,10.8 9.5,10.4 10.3,10.3 10.4,9.5 10.8,10.2 11.7,10.1 
				11.1,10.7 			"/>
			<polygon class="st1" points="12.9,8 12.1,8.3 12.1,9.1 11.6,8.4 10.8,8.7 11.3,8 10.8,7.3 11.6,7.6 12.1,6.9 12.1,7.7 			"/>
			<polygon class="st1" points="11.4,4.6 11.1,5.3 11.7,5.9 10.8,5.8 10.4,6.5 10.3,5.7 9.5,5.6 10.2,5.2 10.1,4.3 10.7,4.9 			"/>
		</g>
	</g>
	<g>
		<circle class="st2" cx="19" cy="8" r="8"/>
		<g>
			<path class="st3" d="M27,8c0-3.2-1.8-5.9-4.5-7.2v14.4C25.2,13.9,27,11.2,27,8z"/>
			<path class="st3" d="M11,8c0,3.2,1.8,5.9,4.5,7.2V0.8C12.8,2.1,11,4.8,11,8z"/>
			<polygon class="st3" points="20.4,9 21.8,8.3 21.1,8 21.1,7.3 19.7,8 20.4,6.6 19.7,6.6 19,5.6 18.3,6.6 17.6,6.6 18.3,8 
				16.9,7.3 16.9,8 16.2,8.3 17.6,9 17.3,9.7 18.7,9.7 18.7,10.8 19.3,10.8 19.3,9.7 20.7,9.7 			"/>
		</g>
	</g>
</g>
</svg>
